<svg width="167" height="105" viewBox="0 0 167 105" fill="none" xmlns="http://www.w3.org/2000/svg">
<path d="M76.2043 8.7695C78.7253 6.23569 84.6443 6.23569 87.1653 8.7695C89.2782 10.8932 93.9594 11.3124 96.9476 9.64536C100.513 7.65651 106.192 8.69504 107.465 11.5685C108.531 13.977 112.833 15.2004 116.454 14.1252C120.775 12.8424 125.755 14.8353 125.675 17.8156C125.609 20.3136 129.183 22.2423 133.144 21.846C137.871 21.3732 141.747 24.159 140.322 27.0048C139.129 29.39 141.685 31.8676 145.665 32.1823C150.414 32.5578 152.873 35.9109 150.219 38.3915C147.995 40.4707 149.327 43.2966 153.003 44.2968C157.389 45.4902 158.231 49.1388 154.563 51.0533C151.488 52.658 151.488 55.6032 154.563 57.2079C158.231 59.1225 157.389 62.771 153.003 63.9644C149.327 64.9646 147.995 67.7906 150.219 69.8697C152.873 72.3503 150.414 75.7034 145.665 76.0788C141.685 76.3934 139.129 78.8713 140.322 81.2565C141.747 84.1022 137.871 86.8883 133.144 86.4151C129.183 86.0187 125.609 87.9479 125.675 90.4454C125.755 93.426 120.775 95.4186 116.454 94.1359C112.833 93.0605 108.531 94.2844 107.465 96.693C106.192 99.5665 100.513 100.605 96.9476 98.6155C93.9594 96.9485 89.2782 97.3682 87.1653 99.4919C84.6443 102.026 78.7253 102.026 76.2043 99.4919C74.0914 97.3682 69.4102 96.9485 66.422 98.6155C62.8569 100.605 57.1775 99.5665 55.9051 96.693C54.8384 94.2844 50.5365 93.0605 46.9153 94.1359C42.5948 95.4186 37.6153 93.426 37.6943 90.4454C37.7605 87.9479 34.1864 86.0187 30.2253 86.4151C25.4996 86.8883 21.6234 84.1022 23.0475 81.2565C24.241 78.8713 21.6841 76.3934 17.7043 76.0788C12.9561 75.7034 10.4972 72.3503 13.151 69.8697C15.3753 67.7906 14.0429 64.9646 10.3666 63.9644C5.9806 62.771 5.13823 59.1225 8.80673 57.2079C11.8816 55.6032 11.8816 52.658 8.80673 51.0533C5.13823 49.1388 5.9806 45.4902 10.3666 44.2968C14.0429 43.2966 15.3753 40.4707 13.151 38.3915C10.4972 35.9109 12.9561 32.5578 17.7043 32.1823C21.6841 31.8676 24.241 29.39 23.0475 27.0048C21.6234 24.159 25.4996 21.3732 30.2253 21.846C34.1864 22.2423 37.7605 20.3136 37.6943 17.8156C37.6153 14.8353 42.5948 12.8424 46.9153 14.1252C50.5365 15.2004 54.8384 13.977 55.9051 11.5685C57.1775 8.69504 62.8569 7.65651 66.422 9.64536C69.4102 11.3124 74.0914 10.8932 76.2043 8.7695Z" fill="#82B4B4"/>
<path d="M79.8347 6.50826C82.3557 3.97446 88.2747 3.97446 90.7957 6.50826C92.9086 8.63198 97.5898 9.05115 100.578 7.38415C104.143 5.39528 109.822 6.4338 111.095 9.30723C112.162 11.7157 116.463 12.9392 120.085 11.864C124.405 10.5812 129.385 12.574 129.305 15.5544C129.24 18.0524 132.813 19.9811 136.774 19.5848C141.501 19.1119 145.377 21.8978 143.953 24.7435C142.76 27.1288 145.315 29.6064 149.296 29.9211C154.044 30.2966 156.503 33.6496 153.849 36.1303C151.625 38.2094 152.957 41.0354 156.634 42.0356C161.019 43.2289 161.862 46.8775 158.194 48.792C155.119 50.3968 155.119 53.342 158.194 54.9467C161.862 56.8612 161.019 60.5098 156.634 61.7032C152.957 62.7034 151.625 65.5293 153.849 67.6085C156.503 70.0891 154.044 73.4421 149.296 73.8176C145.315 74.1324 142.76 76.6101 143.953 78.9953C145.377 81.841 141.501 84.6271 136.774 84.1538C132.813 83.7574 129.24 85.6867 129.305 88.1842C129.385 91.1648 124.405 93.1574 120.085 91.8747C116.463 90.7993 112.162 92.0232 111.095 94.4318C109.822 97.3053 104.143 98.3438 100.578 96.3542C97.5898 94.6872 92.9086 95.107 90.7957 97.2307C88.2747 99.7644 82.3557 99.7644 79.8347 97.2307C77.7218 95.107 73.0406 94.6872 70.0524 96.3542C66.4873 98.3438 60.808 97.3053 59.5355 94.4318C58.4689 92.0232 54.1669 90.7993 50.5457 91.8747C46.2252 93.1574 41.2457 91.1648 41.3248 88.1842C41.391 85.6867 37.8168 83.7574 33.8557 84.1538C29.13 84.6271 25.2538 81.841 26.6779 78.9953C27.8715 76.6101 25.3145 74.1324 21.3347 73.8176C16.5865 73.4421 14.1276 70.0891 16.7814 67.6085C19.0057 65.5293 17.6733 62.7034 13.997 61.7032C9.61103 60.5098 8.76866 56.8612 12.4371 54.9467C15.512 53.342 15.512 50.3968 12.4371 48.7921C8.76866 46.8775 9.61103 43.2289 13.997 42.0356C17.6733 41.0354 19.0057 38.2094 16.7814 36.1303C14.1276 33.6496 16.5865 30.2966 21.3347 29.9211C25.3145 29.6064 27.8715 27.1288 26.6779 24.7435C25.2538 21.8978 29.13 19.1119 33.8557 19.5848C37.8168 19.9811 41.391 18.0524 41.3248 15.5544C41.2457 12.574 46.2252 10.5812 50.5457 11.864C54.1669 12.9392 58.4689 11.7157 59.5355 9.30723C60.808 6.43379 66.4873 5.39528 70.0524 7.38415C73.0406 9.05115 77.7218 8.63198 79.8347 6.50826Z" fill="white"/>
</svg>
